<svg width="128" height="128" viewBox="0 0 128 128" fill="none" xmlns="http://www.w3.org/2000/svg">
<path d="M46.2222 117.333C56.0356 117.333 64 109.369 64 99.5556V81.7778H46.2222C36.4089 81.7778 28.4445 89.7423 28.4445 99.5556C28.4445 109.369 36.4089 117.333 46.2222 117.333Z" fill="#0ACF83"/>
<path d="M28.4445 63.9999C28.4445 54.1866 36.4089 46.2222 46.2222 46.2222H64V81.7777H46.2222C36.4089 81.7777 28.4445 73.8133 28.4445 63.9999Z" fill="#A259FF"/>
<path d="M28.4445 28.4444C28.4445 18.6311 36.4089 10.6666 46.2222 10.6666H64V46.2222H46.2222C36.4089 46.2222 28.4445 38.2577 28.4445 28.4444Z" fill="#F24E1E"/>
<path d="M64 10.6666H81.7778C91.5911 10.6666 99.5556 18.6311 99.5556 28.4444C99.5556 38.2577 91.5911 46.2222 81.7778 46.2222H64V10.6666Z" fill="#FF7262"/>
<path d="M99.5556 63.9999C99.5556 73.8133 91.5911 81.7777 81.7778 81.7777C71.9644 81.7777 64 73.8133 64 63.9999C64 54.1866 71.9644 46.2222 81.7778 46.2222C91.5911 46.2222 99.5556 54.1866 99.5556 63.9999Z" fill="#1ABCFE"/>
</svg>
