<svg width="128" height="128" viewBox="0 0 128 128" fill="none" xmlns="http://www.w3.org/2000/svg">
<g clip-path="url(#clip0_28_184)">
<path d="M125.661 58.3042L125.656 58.3016L69.6615 2.27035C66.6406 -0.75765 61.3542 -0.755045 58.3438 2.26774L2.33854 58.3042C0.833333 59.8182 0 61.8273 0 63.9614C0 66.0981 0.833333 68.1095 2.34375 69.6209L58.3385 125.652C59.849 127.166 61.8594 128 64 128C66.1406 128 68.151 127.166 69.6562 125.655L125.656 69.6209C127.167 68.1095 128 66.0981 128 63.9614C128 61.8273 127.167 59.8182 125.661 58.3042Z" fill="#EF473B"/>
<path opacity="0.1" d="M126.299 67.6794L69.7152 124.297C68.1943 125.824 66.1628 126.667 64 126.667C61.8372 126.667 59.8057 125.824 58.2796 124.294L1.7015 67.6794C1.04036 67.0177 0.535156 66.2481 0.143555 65.4275C0.43457 67.0059 1.18522 68.4617 2.34375 69.6208L58.3385 125.652C59.849 127.166 61.8594 128 64 128C66.1406 128 68.151 127.166 69.6562 125.655L125.656 69.6208C126.815 68.4617 127.566 67.0059 127.857 65.4275C127.465 66.2481 126.96 67.0177 126.299 67.6794Z" fill="#010101"/>
<path d="M90.6667 53.3335C88.6673 53.3335 86.8161 53.9204 85.2148 54.8816L73.1185 42.7853C74.0794 41.1844 74.6667 39.3331 74.6667 37.3335C74.6667 31.4506 69.8802 26.6668 64 26.6668C62.0273 26.6668 60.2012 27.2417 58.6143 28.1792L45.5277 15.0909L41.7578 18.8628L54.8441 31.9506C53.9079 33.5366 53.3333 35.3618 53.3333 37.3335C53.3333 42.2898 56.7467 46.4288 61.3333 47.6212V80.379C56.7467 81.5714 53.3333 85.7104 53.3333 90.6668C53.3333 96.5496 58.1198 101.333 64 101.333C69.8802 101.333 74.6667 96.5496 74.6667 90.6668C74.6667 85.7104 71.2533 81.5714 66.6667 80.379V47.6212C67.6094 47.3761 68.4935 47.0034 69.3167 46.5252L81.4749 58.6834C80.5618 60.255 80 62.0551 80 64.0001C80 69.8829 84.7865 74.6668 90.6667 74.6668C96.5469 74.6668 101.333 69.8829 101.333 64.0001C101.333 58.1173 96.5469 53.3335 90.6667 53.3335Z" fill="white"/>
<path opacity="0.2" d="M2.33854 59.6375L58.3438 3.60107C61.3542 0.578288 66.6406 0.575684 69.6615 3.60368L125.656 59.6349L125.661 59.6375C127.007 60.9911 127.779 62.7482 127.935 64.6284C127.953 64.4051 128 64.188 128 63.9614C128 61.8273 127.167 59.8182 125.661 58.3042L125.656 58.3016L69.6615 2.27035C66.6406 -0.75765 61.3542 -0.755045 58.3438 2.26774L2.33854 58.3042C0.833333 59.8182 0 61.8273 0 63.9614C0 64.1877 0.0465493 64.4048 0.065104 64.6278C0.221679 62.7476 0.993164 60.9907 2.33854 59.6375Z" fill="white"/>
<path d="M98.9271 57.3354C100.408 59.1671 101.333 61.4659 101.333 64.0001C101.333 69.8829 96.5469 74.6667 90.6667 74.6667C84.7865 74.6667 80 69.8829 80 64.0001C80 62.0551 80.5618 60.255 81.4749 58.6833L69.3167 46.5251C68.4935 47.0033 67.6094 47.3761 66.6667 47.6212V80.379C71.2533 81.5714 74.6667 85.7104 74.6667 90.6667C74.6667 96.5496 69.8802 101.333 64 101.333C61.2721 101.333 58.8063 100.274 56.918 98.5828L76.821 118.486L118.437 76.8448L98.9271 57.3354ZM73.1185 42.7852L85.2148 54.8816C86.8161 53.9203 88.6673 53.3334 90.6667 53.3334C93.2005 53.3334 95.5 54.2589 97.3324 55.7406L72.3848 30.7927L72.3717 30.8035C73.7874 32.6137 74.6667 34.8621 74.6667 37.3334C74.6667 39.3331 74.0794 41.1843 73.1185 42.7852Z" fill="url(#paint0_linear_28_184)"/>
<path d="M125.661 58.3042L125.656 58.3016L69.6615 2.27035C66.6406 -0.75765 61.3542 -0.755045 58.3438 2.26774L2.33854 58.3042C0.833333 59.8182 0 61.8273 0 63.9614C0 66.0981 0.833333 68.1095 2.34375 69.6209L58.3385 125.652C59.849 127.166 61.8594 128 64 128C66.1406 128 68.151 127.166 69.6562 125.655L125.656 69.6209C127.167 68.1095 128 66.0981 128 63.9614C128 61.8273 127.167 59.8182 125.661 58.3042Z" fill="url(#paint1_linear_28_184)"/>
</g>
<defs>
<linearGradient id="paint0_linear_28_184" x1="51.5694" y1="51.6058" x2="97.6352" y2="97.6715" gradientUnits="userSpaceOnUse">
<stop stop-color="#010101" stop-opacity="0.1"/>
<stop offset="1" stop-color="#010101" stop-opacity="0"/>
</linearGradient>
<linearGradient id="paint1_linear_28_184" x1="10.7404" y1="39.1463" x2="117.245" y2="88.8101" gradientUnits="userSpaceOnUse">
<stop stop-color="white" stop-opacity="0.2"/>
<stop offset="1" stop-color="white" stop-opacity="0"/>
</linearGradient>
<clipPath id="clip0_28_184">
<rect width="128" height="128" fill="white"/>
</clipPath>
</defs>
</svg>
