<svg width="128" height="128" viewBox="0 0 128 128" fill="none" xmlns="http://www.w3.org/2000/svg">
<path d="M83.3208 76.7792C85.5225 75.2742 88.5765 73.9717 88.5765 73.9717C88.5765 73.9717 79.8845 75.5442 71.2373 76.2629C60.6585 77.1387 49.2935 77.3182 43.5885 76.5547C30.0895 74.7579 51.0003 69.7937 51.0003 69.7937C51.0003 69.7937 42.892 69.2552 32.897 74.0612C21.1055 79.7664 62.0958 82.3717 83.3208 76.7792Z" fill="#5382A1"/>
<path d="M64.14 69.5693C59.8725 59.9788 45.4753 51.5558 64.14 36.8218C87.4318 18.4493 75.4825 6.5 75.4825 6.5C80.3115 25.4792 58.5025 31.2292 50.6185 43.021C45.2503 51.0843 53.2465 59.7318 64.14 69.5693Z" fill="#F8981D"/>
<path d="M89.8795 29.9938C89.902 29.9938 50.5288 39.8315 69.3283 61.4833C74.876 67.8623 67.8683 73.6123 67.8683 73.6123C67.8683 73.6123 81.9513 66.3353 75.4825 57.2385C69.4405 48.7483 64.8135 44.5258 89.8795 29.9938Z" fill="#F8981D"/>
<path d="M88.5098 90.7497C88.3975 91.0192 88.0605 91.3115 88.0605 91.3337C116.877 83.7645 106.276 64.6277 92.5073 69.4797C91.2943 69.9065 90.666 70.8947 90.666 70.8947C90.666 70.8947 91.4293 70.58 93.1368 70.2207C100.099 68.761 110.094 79.542 88.5098 90.7497Z" fill="#5382A1"/>
<path d="M99.1108 104.743C99.1108 104.743 102.368 107.416 95.5395 109.504C82.535 113.435 41.4548 114.625 30.0448 109.662C25.9345 107.887 33.6383 105.394 36.0643 104.878C38.5795 104.338 40.0395 104.428 40.0395 104.428C35.48 101.216 10.5488 110.74 27.3718 113.458C73.2363 120.914 111.015 110.111 99.1108 104.743Z" fill="#5382A1"/>
<path d="M48.8893 95.444C31.2128 100.385 59.648 110.583 82.153 100.947C78.47 99.5097 75.8195 97.8475 75.8195 97.8475C65.7795 99.7567 61.1305 99.8912 52.0113 98.8582C44.487 98.0047 48.8893 95.444 48.8893 95.444Z" fill="#5382A1"/>
<path d="M89.273 117.276C71.5967 120.6 49.7877 120.218 36.8725 118.084C36.8725 118.062 39.523 120.263 53.134 121.139C73.8425 122.464 105.647 120.397 106.388 110.605C106.388 110.605 104.951 114.311 89.273 117.276Z" fill="#5382A1"/>
<path d="M79.4805 85.786C66.1835 88.3467 58.4798 88.2792 48.7545 87.2685C41.23 86.4822 46.149 82.844 46.149 82.844C26.6535 89.3125 56.975 96.635 84.2193 88.6612C81.3223 87.6502 79.4805 85.786 79.4805 85.786Z" fill="#5382A1"/>
</svg>
