<svg width="128" height="128" viewBox="0 0 128 128" fill="none" xmlns="http://www.w3.org/2000/svg">
<g clip-path="url(#clip0_28_91)">
<path d="M127.13 62.4376L121.675 59.0601C121.632 58.5601 121.59 58.0776 121.537 57.5901L126.217 53.2151C126.446 53.0015 126.616 52.7332 126.712 52.4355C126.807 52.1379 126.825 51.8207 126.764 51.5141C126.703 51.2075 126.565 50.9215 126.363 50.6833C126.16 50.445 125.9 50.2623 125.607 50.1526L119.607 47.9026C119.472 47.4326 119.338 46.9576 119.19 46.4926L122.94 41.2851C123.122 41.0309 123.237 40.7344 123.273 40.4237C123.308 40.1129 123.264 39.7981 123.144 39.5092C123.024 39.2203 122.833 38.9668 122.587 38.7727C122.342 38.5786 122.051 38.4503 121.743 38.4001L115.387 37.3626C115.162 36.9301 114.94 36.5001 114.705 36.0751L117.375 30.2201C117.505 29.9351 117.559 29.6218 117.534 29.3098C117.509 28.9978 117.404 28.6975 117.23 28.4373C117.056 28.1771 116.818 27.9657 116.54 27.8231C116.261 27.6805 115.95 27.6115 115.637 27.6226L109.183 27.8501C108.884 27.4801 108.583 27.1134 108.28 26.7501L109.75 20.4601C109.821 20.1554 109.813 19.8377 109.727 19.5368C109.642 19.236 109.48 18.962 109.259 18.7408C109.038 18.5196 108.764 18.3585 108.463 18.2726C108.162 18.1867 107.845 18.179 107.54 18.2501L101.25 19.7326C100.888 19.4276 100.522 19.1267 100.15 18.8301L100.378 12.3751C100.391 12.0612 100.323 11.7491 100.182 11.4687C100.04 11.1883 99.8289 10.9489 99.5683 10.7734C99.3078 10.5978 99.0066 10.492 98.6935 10.4661C98.3804 10.4401 98.0659 10.4948 97.78 10.6251L91.925 13.3076C91.5 13.0726 91.0675 12.8476 90.6375 12.6251L89.6 6.27006C89.5497 5.96131 89.4215 5.67051 89.2274 5.4252C89.0332 5.17989 88.7797 4.9882 88.4908 4.86828C88.2019 4.74835 87.8872 4.70417 87.5764 4.73992C87.2656 4.77567 86.9691 4.89017 86.715 5.07256L81.5 8.81506C81.035 8.66756 80.5625 8.53256 80.09 8.39756L77.84 2.39756C77.7302 2.10481 77.5476 1.84491 77.3093 1.64247C77.071 1.44002 76.7851 1.30171 76.4784 1.24063C76.1718 1.17956 75.8547 1.19773 75.557 1.29344C75.2594 1.38914 74.9911 1.55922 74.7775 1.78756L70.4025 6.46756C69.915 6.41506 69.425 6.37256 68.9325 6.33006L65.5625 0.870058C65.3978 0.603876 65.1678 0.384189 64.8943 0.231835C64.6209 0.0794812 64.313 -0.000488281 64 -0.000488281C63.687 -0.000488281 63.3791 0.0794812 63.1057 0.231835C62.8322 0.384189 62.6022 0.603876 62.4375 0.870058L59.06 6.32506C58.56 6.36756 58.0775 6.41006 57.59 6.46256L53.215 1.78256C53.0014 1.55422 52.7331 1.38414 52.4355 1.28844C52.1378 1.19273 51.8207 1.17456 51.5141 1.23563C51.2074 1.29671 50.9215 1.43502 50.6832 1.63747C50.4449 1.83991 50.2623 2.09981 50.1525 2.39256L47.9025 8.39256C47.43 8.53006 46.955 8.66256 46.4875 8.81256L41.2825 5.06256C41.0284 4.88017 40.7319 4.76567 40.4211 4.72992C40.1103 4.69417 39.7956 4.73835 39.5067 4.85828C39.2178 4.9782 38.9642 5.16989 38.7701 5.4152C38.576 5.66051 38.4478 5.95131 38.3975 6.26006L37.36 12.6126C36.9275 12.8376 36.4975 13.0601 36.07 13.2951L30.22 10.6376C29.9341 10.5073 29.6196 10.4526 29.3065 10.4786C28.9934 10.5045 28.6922 10.6103 28.4317 10.7859C28.1711 10.9614 27.9599 11.2008 27.8183 11.4812C27.6766 11.7616 27.6092 12.0737 27.6225 12.3876L27.8525 18.8401C27.48 19.1376 27.1025 19.4376 26.7475 19.7426L20.46 18.2501C20.1553 18.179 19.8376 18.1867 19.5368 18.2726C19.2359 18.3585 18.962 18.5196 18.7408 18.7408C18.5196 18.962 18.3584 19.236 18.2725 19.5368C18.1867 19.8377 18.1789 20.1554 18.25 20.4601L19.7325 26.7501C19.425 27.1126 19.125 27.4826 18.8275 27.8526L12.375 27.6251C12.0624 27.6156 11.7524 27.6854 11.474 27.8279C11.1956 27.9704 10.9577 28.181 10.7825 28.4401C10.6089 28.7005 10.5047 29.0009 10.4798 29.3128C10.4549 29.6247 10.51 29.9379 10.64 30.2226L13.305 36.0751C13.07 36.5001 12.8475 36.9326 12.6225 37.3651L6.27 38.4001C5.96125 38.4503 5.67045 38.5786 5.42514 38.7727C5.17983 38.9668 4.98814 39.2203 4.86821 39.5092C4.74829 39.7981 4.70411 40.1129 4.73986 40.4237C4.77561 40.7344 4.8901 41.0309 5.0725 41.2851L8.8225 46.4901C8.675 46.9576 8.54 47.4326 8.4025 47.9051L2.4025 50.1551C2.10975 50.2648 1.84985 50.4475 1.6474 50.6858C1.44496 50.924 1.30665 51.21 1.24557 51.5166C1.1845 51.8232 1.20267 52.1404 1.29838 52.438C1.39408 52.7357 1.56415 53.004 1.7925 53.2176L6.4725 57.5926C6.42 58.0801 6.3775 58.5701 6.335 59.0626L0.869997 62.4376C0.603815 62.6023 0.384128 62.8323 0.231774 63.1057C0.0794202 63.3792 -0.000549316 63.687 -0.000549316 64.0001C-0.000549316 64.3131 0.0794202 64.6209 0.231774 64.8944C0.384128 65.1678 0.603815 65.3978 0.869997 65.5626L6.325 68.9401C6.3675 69.4401 6.41 69.9201 6.4625 70.4076L1.7825 74.7826C1.55415 74.9961 1.38408 75.2644 1.28838 75.5621C1.19267 75.8597 1.1745 76.1769 1.23557 76.4835C1.29665 76.7901 1.43496 77.0761 1.6374 77.3144C1.83985 77.5526 2.09975 77.7353 2.3925 77.8451L8.3925 80.0951C8.53 80.5676 8.6625 81.0401 8.8125 81.5076L5.0625 86.7151C4.8801 86.9692 4.76561 87.2657 4.72986 87.5765C4.69411 87.8872 4.73829 88.202 4.85821 88.4909C4.97814 88.7798 5.16983 89.0333 5.41514 89.2274C5.66045 89.4215 5.95125 89.5498 6.26 89.6001L12.615 90.6376C12.84 91.0676 13.0625 91.5001 13.2975 91.9226L10.64 97.7801C10.51 98.0647 10.4549 98.3779 10.4798 98.6898C10.5047 99.0018 10.6089 99.3022 10.7825 99.5626C10.9526 99.8267 11.1894 100.041 11.4691 100.184C11.7488 100.327 12.0613 100.394 12.375 100.378L18.8325 100.15C19.1275 100.52 19.4275 100.887 19.7325 101.25L18.25 107.54C18.1789 107.845 18.1867 108.162 18.2725 108.463C18.3584 108.764 18.5196 109.038 18.7408 109.259C18.962 109.48 19.2359 109.642 19.5368 109.728C19.8376 109.813 20.1553 109.821 20.46 109.75L26.75 108.268C27.1133 108.573 27.4808 108.873 27.8525 109.17L27.6225 115.625C27.6114 115.938 27.6804 116.248 27.823 116.527C27.9656 116.806 28.177 117.043 28.4372 117.217C28.6974 117.391 28.9977 117.496 29.3098 117.522C29.6218 117.547 29.9351 117.492 30.22 117.363L36.0775 114.693C36.5 114.928 36.9325 115.15 37.3625 115.375L38.4 121.73C38.45 122.039 38.5781 122.33 38.7723 122.575C38.9664 122.821 39.2201 123.012 39.5092 123.132C39.7983 123.252 40.1132 123.296 40.424 123.26C40.7348 123.223 41.0312 123.108 41.285 122.925L46.4925 119.175C46.9575 119.325 47.4325 119.458 47.905 119.595L50.155 125.595C50.2653 125.887 50.4482 126.147 50.6865 126.349C50.9248 126.551 51.2106 126.689 51.517 126.75C51.8234 126.811 52.1402 126.793 52.4378 126.698C52.7353 126.602 53.0036 126.433 53.2175 126.205L57.5925 121.525C58.08 121.578 58.5725 121.62 59.0625 121.663L62.44 127.118C62.6047 127.384 62.8347 127.603 63.1082 127.756C63.3816 127.908 63.6895 127.988 64.0025 127.988C64.3155 127.988 64.6234 127.908 64.8968 127.756C65.1703 127.603 65.4003 127.384 65.565 127.118L68.9425 121.663C69.4425 121.62 69.925 121.578 70.4125 121.523L74.7875 126.205C75.0014 126.433 75.2697 126.602 75.5672 126.698C75.8648 126.793 76.1816 126.811 76.488 126.75C76.7944 126.689 77.0802 126.551 77.3185 126.349C77.5567 126.147 77.7397 125.887 77.85 125.595L80.1 119.595C80.5725 119.458 81.045 119.325 81.5125 119.175L86.7175 122.925C86.9713 123.108 87.2676 123.223 87.5785 123.26C87.8893 123.296 88.2042 123.252 88.4933 123.132C88.7824 123.012 89.0361 122.821 89.2302 122.575C89.4243 122.33 89.5525 122.039 89.6025 121.73L90.64 115.375C91.07 115.15 91.5025 114.928 91.9275 114.693L97.7825 117.363C98.0674 117.492 98.3807 117.547 98.6927 117.522C99.0047 117.496 99.3051 117.391 99.5653 117.217C99.8255 117.043 100.037 116.806 100.179 116.527C100.322 116.248 100.391 115.938 100.38 115.625L100.152 109.17C100.522 108.872 100.889 108.571 101.253 108.268L107.54 109.75C107.845 109.821 108.162 109.813 108.463 109.728C108.764 109.642 109.038 109.48 109.259 109.259C109.48 109.038 109.642 108.764 109.727 108.463C109.813 108.162 109.821 107.845 109.75 107.54L108.268 101.25C108.573 100.888 108.873 100.522 109.17 100.15L115.625 100.378C115.938 100.392 116.25 100.324 116.529 100.181C116.808 100.038 117.046 99.8249 117.217 99.5626C117.391 99.3024 117.496 99.0021 117.521 98.6901C117.547 98.3782 117.492 98.0649 117.363 97.7801L114.692 91.9251C114.927 91.5001 115.15 91.0676 115.375 90.6376L121.73 89.6001C122.039 89.5498 122.33 89.4215 122.575 89.2274C122.82 89.0333 123.012 88.7798 123.132 88.4909C123.252 88.202 123.296 87.8872 123.26 87.5765C123.224 87.2657 123.11 86.9692 122.927 86.7151L119.177 81.5076C119.325 81.0401 119.46 80.5676 119.595 80.0951L125.595 77.8451C125.888 77.7353 126.148 77.5526 126.35 77.3144C126.553 77.0761 126.691 76.7901 126.752 76.4835C126.813 76.1769 126.795 75.8597 126.699 75.5621C126.603 75.2644 126.433 74.9961 126.205 74.7826L121.525 70.4076C121.577 69.9201 121.62 69.4301 121.662 68.9401L127.118 65.5626C127.384 65.3978 127.603 65.1678 127.756 64.8944C127.908 64.6209 127.988 64.3131 127.988 64.0001C127.988 63.687 127.908 63.3792 127.756 63.1057C127.603 62.8323 127.384 62.6023 127.118 62.4376H127.13ZM89.38 94.7076C88.4783 94.514 87.5366 94.6865 86.762 95.1872C85.9875 95.6879 85.4436 96.4758 85.25 97.3776L83.34 106.295C77.1948 109.079 70.5211 110.503 63.7748 110.472C57.0285 110.44 50.3686 108.952 44.25 106.11L42.34 97.1951C42.2452 96.7495 42.0636 96.3269 41.8055 95.9516C41.5474 95.5762 41.2179 95.2554 40.8357 95.0074C40.4536 94.7595 40.0263 94.5893 39.5784 94.5065C39.1304 94.4237 38.6705 94.43 38.225 94.5251L30.3475 96.2151C28.8864 94.7071 27.5283 93.1027 26.2825 91.4126H64.575C65.005 91.4126 65.2975 91.3401 65.2975 90.9351V77.3876C65.2975 76.9951 65.005 76.9101 64.575 76.9101H53.3675L53.38 68.3226H65.5C66.6025 68.3226 71.415 68.6426 72.9475 74.7901C73.425 76.6776 74.49 82.8251 75.2125 84.7901C75.935 86.9951 78.8625 91.4051 81.9875 91.4051H101.75C100.426 93.1796 98.9769 94.858 97.415 96.4276L89.38 94.7076ZM95.8225 103.33C95.8225 104.083 95.5994 104.819 95.1813 105.445C94.7632 106.072 94.1689 106.56 93.4734 106.849C92.7779 107.138 92.0125 107.214 91.2738 107.068C90.5351 106.922 89.8562 106.56 89.3228 106.029C88.7895 105.497 88.4257 104.819 88.2772 104.081C88.1288 103.343 88.2025 102.577 88.4889 101.881C88.7754 101.184 89.2618 100.588 89.8867 100.168C90.5116 99.7481 91.247 99.5225 92 99.5201H92.11C93.1015 99.5481 94.0429 99.9619 94.734 100.673C95.425 101.385 95.811 102.338 95.81 103.33H95.8225ZM39.4175 103.16C39.417 103.913 39.1932 104.65 38.7744 105.276C38.3555 105.902 37.7604 106.39 37.0644 106.678C36.3683 106.966 35.6024 107.041 34.8636 106.894C34.1248 106.747 33.4461 106.384 32.9134 105.852C32.3807 105.319 32.0179 104.64 31.8708 103.901C31.7237 103.163 31.799 102.397 32.087 101.701C32.3751 101.005 32.863 100.41 33.4892 99.9907C34.1154 99.5719 34.8517 99.3481 35.605 99.3476H35.7175C36.7068 99.38 37.6447 99.796 38.3329 100.507C39.0211 101.219 39.4055 102.17 39.405 103.16H39.4175ZM17.3925 58.5376L25.6 54.8876C26.017 54.7028 26.3935 54.4377 26.7079 54.1073C27.0223 53.7769 27.2685 53.3878 27.4325 52.9622C27.5964 52.5366 27.6748 52.0828 27.6632 51.6269C27.6517 51.171 27.5503 50.7218 27.365 50.3051L25.6725 46.5001H32.3125V76.4326H18.9125C17.2581 70.6211 16.742 64.5448 17.3925 58.5376ZM14.5775 49.5226C14.5772 49.0222 14.6754 48.5267 14.8666 48.0643C15.0577 47.602 15.3381 47.1818 15.6917 46.8277C16.0452 46.4737 16.465 46.1928 16.9272 46.001C17.3893 45.8093 17.8847 45.7104 18.385 45.7101H18.5C19.2486 45.7312 19.9744 45.9725 20.5866 46.4038C21.1989 46.835 21.6705 47.4372 21.9424 48.135C22.2144 48.8328 22.2746 49.5952 22.1157 50.3271C21.9568 51.0589 21.5857 51.7277 21.0488 52.2498C20.512 52.772 19.8331 53.1243 19.0971 53.2628C18.3612 53.4013 17.6007 53.3199 16.9107 53.0286C16.2208 52.7373 15.632 52.2492 15.2179 51.6252C14.8038 51.0012 14.5828 50.269 14.5825 49.5201L14.5775 49.5226ZM53.3675 55.6451L53.38 46.8151H69.195C70.015 46.8151 74.9625 47.7576 74.9625 51.4701C74.9625 54.5426 71.165 55.6451 68.0425 55.6451H53.3675ZM99.75 76.6776C97.3 76.9601 94.5925 75.6476 94.25 74.1551C92.805 66.0326 90.4025 64.3051 86.6075 61.3051C91.3225 58.3176 96.2225 53.8951 96.2225 47.9901C96.2225 41.6101 91.85 37.5926 88.8725 35.6201C84.6825 32.8701 80.0525 32.3126 78.805 32.3126H29.08C35.9556 24.6305 45.1722 19.4295 55.3025 17.5151L61.17 23.6651C61.4838 23.9953 61.8597 24.2602 62.2763 24.4446C62.6928 24.6289 63.1417 24.7291 63.5971 24.7393C64.0525 24.7496 64.5055 24.6696 64.9298 24.5041C65.3542 24.3386 65.7417 24.0909 66.07 23.7751L72.635 17.5251C79.3226 18.7778 85.6573 21.4712 91.1993 25.4184C96.7412 29.3656 101.357 34.4719 104.728 40.3826L100.228 50.5251C99.8619 51.3686 99.8428 52.3221 100.174 53.1796C100.506 54.0371 101.162 54.7296 102 55.1076L110.647 58.9401C110.917 61.6437 110.95 64.3656 110.747 67.0751H105.927C105.45 67.0751 105.255 67.3926 105.255 67.8576V70.0626C105.25 75.2501 102.327 76.3951 99.75 76.6776ZM60 15.0526C60.002 14.0447 60.4032 13.0787 61.1159 12.366C61.8286 11.6533 62.7946 11.252 63.8025 11.2501H63.915C64.664 11.2707 65.3904 11.5118 66.0031 11.9431C66.6159 12.3744 67.0878 12.9769 67.3599 13.6751C67.632 14.3733 67.6922 15.1362 67.5329 15.8684C67.3737 16.6006 67.002 17.2696 66.4645 17.7917C65.927 18.3137 65.2475 18.6657 64.5109 18.8036C63.7744 18.9414 63.0135 18.859 62.3236 18.5667C61.6336 18.2743 61.0452 17.785 60.6319 17.16C60.2186 16.5349 59.9988 15.8019 60 15.0526ZM109.21 53.5001C108.71 53.5001 108.214 53.4015 107.752 53.21C107.29 53.0186 106.87 52.7379 106.516 52.3841C106.162 52.0303 105.881 51.6103 105.69 51.1481C105.499 50.6858 105.4 50.1904 105.4 49.6901C105.4 49.1897 105.499 48.6943 105.69 48.232C105.881 47.7698 106.162 47.3498 106.516 46.996C106.87 46.6422 107.29 46.3615 107.752 46.1701C108.214 45.9786 108.71 45.8801 109.21 45.8801H109.32C110.33 45.8946 111.294 46.31 111.998 47.0349C112.702 47.7597 113.09 48.7346 113.075 49.7451C113.06 50.7555 112.645 51.7188 111.92 52.423C111.195 53.1272 110.22 53.5146 109.21 53.5001Z" fill="black"/>
</g>
<defs>
<clipPath id="clip0_28_91">
<rect width="128" height="128" fill="white"/>
</clipPath>
</defs>
</svg>
