<svg width="128" height="128" viewBox="0 0 128 128" fill="none" xmlns="http://www.w3.org/2000/svg">
<path d="M60.368 94.73C60.248 95 60.308 94.88 60.368 94.73V94.73ZM110.194 72.98C106.171 72.9784 102.203 74.1332 98.594 76.355C97.414 73.38 96.194 70.78 95.994 68.83C95.754 66.555 95.494 65.205 95.774 62.505C96.054 59.805 97.314 55.98 97.294 55.705C97.274 55.43 97.014 54.055 94.434 54.03C91.854 54.005 89.634 54.655 89.376 55.505C88.9204 57.0584 88.5659 58.6553 88.316 60.28C87.856 63.205 83.158 73.655 80.498 79.105C79.618 76.98 78.878 75.105 78.718 73.605C78.478 71.33 78.218 69.98 78.498 67.28C78.778 64.58 80.038 60.755 80.018 60.48C79.998 60.205 79.738 58.83 77.16 58.805C74.582 58.78 72.36 59.43 72.1 60.28C71.84 61.13 71.56 63.13 71.04 65.055C70.52 66.98 64.262 84.38 62.624 88.905C61.784 91.205 61.064 93.055 60.544 94.305C60.464 94.505 60.404 94.63 60.364 94.73C60.424 94.605 60.464 94.48 60.464 94.53C60.024 95.605 59.764 96.205 59.764 96.205V96.23C59.424 97.03 59.044 97.755 58.864 97.755C58.744 97.755 58.484 95.655 58.924 92.78C59.864 86.73 62.084 77.33 62.064 77.005C62.044 76.83 62.484 75.205 60.604 74.33C58.784 73.505 58.124 74.88 57.964 74.88C57.804 74.88 57.684 75.38 57.684 75.38C57.684 75.38 59.704 64.78 53.806 64.78C50.126 64.78 45.006 69.83 42.49 74.405C40.91 75.48 37.49 77.805 33.89 80.28C32.51 81.23 31.09 82.205 29.75 83.13C29.65 83.005 29.57 82.88 29.47 82.755C22.312 73.205 9.09602 66.455 9.65602 53.63C9.85602 48.955 11.156 36.68 35.07 21.78C54.67 9.58004 70.34 12.93 73.038 20.38C76.918 31.005 64.66 50.78 44.306 53.63C36.548 54.705 32.47 50.955 31.45 49.555C30.39 48.08 30.23 48.005 29.83 48.28C29.17 48.73 29.59 50.03 29.83 50.805C30.43 52.78 32.93 56.28 37.188 58.03C40.928 59.555 50.024 60.405 61.022 55.08C73.378 49.13 82.996 32.555 80.176 18.68C77.304 4.58004 58.6 -0.0449619 40.914 7.80504C30.376 12.48 18.98 19.83 10.782 29.405C1.04402 40.805 -0.51398 50.73 0.12602 54.88C2.40402 69.605 18.64 79.205 25.138 86.305C24.818 86.53 24.518 86.73 24.238 86.93C20.98 88.955 8.60202 97.055 5.50402 105.605C2.00402 115.305 6.08402 122.255 8.76202 123.205C17.12 126.105 25.678 120.88 30.276 112.305C34.874 103.73 34.316 92.53 32.196 87.43C32.176 87.355 32.136 87.305 32.116 87.23C32.956 86.605 33.816 85.98 34.676 85.355C36.334 84.13 37.954 83.005 39.374 82.03C38.574 84.73 37.994 87.98 37.694 92.68C37.334 98.18 39.154 105.305 41.514 108.105C42.554 109.33 43.812 109.355 44.592 109.355C47.352 109.355 48.592 106.505 49.97 103.105C51.67 98.955 53.17 94.13 53.17 94.13C53.17 94.13 51.29 107.18 56.43 107.18C58.308 107.18 60.188 104.155 61.03 102.605V102.63C61.03 102.63 61.07 102.53 61.17 102.33C61.37 101.955 61.47 101.73 61.47 101.73V101.655C62.23 100.03 63.89 96.305 66.388 90.155C69.628 82.205 72.726 72.28 72.726 72.28C73.0254 74.4618 73.4396 76.6165 73.966 78.73C74.526 81.105 75.706 83.705 76.646 86.23C75.886 87.53 75.426 88.28 75.426 88.28C75.4275 88.2992 75.4346 88.3171 75.446 88.33C74.846 89.33 74.166 90.405 73.466 91.455C70.908 95.255 67.866 99.605 67.466 100.855C66.986 102.33 67.106 103.43 68.026 104.28C68.706 104.93 69.906 105.03 71.164 104.905C73.464 104.705 75.084 104.005 75.864 103.555C77.302 102.91 78.6611 102.019 79.902 100.905C82.402 98.605 83.922 95.305 83.782 90.955C83.702 88.555 83.082 86.155 82.322 83.905C82.542 83.505 82.782 83.08 83.002 82.655C86.96 75.43 90.02 67.5 90.02 67.5C90.3194 69.6818 90.7336 71.8365 91.26 73.95C91.74 75.975 92.678 78.2 93.538 80.375C89.82 84.15 87.52 88.525 86.72 91.4C85.24 96.725 86.4 99.125 88.58 99.675C89.56 99.925 90.96 99.35 92 98.8C93.5446 98.157 95.0009 97.221 96.318 96.025C98.818 93.725 101.236 90.5 101.076 86.125C101.016 84.15 100.576 82.175 99.996 80.275C103.136 78.625 107.214 77.725 112.414 78.475C123.55 80.1 125.73 88.8 125.31 92.425C124.89 96.05 122.55 98.075 121.77 98.675C120.99 99.275 120.75 99.5 120.81 99.95C120.91 100.6 121.27 100.575 121.93 100.425C122.85 100.225 127.768 97.475 127.988 90.75C128.308 82.25 121.77 72.9 110.188 72.975L110.194 72.98ZM24.358 109.155C20.68 114.18 15.52 116.08 13.302 114.48C10.922 112.75 11.862 105.355 16.4 100C19.16 96.75 22.718 93.75 25.078 91.9C25.618 91.5 26.398 90.9 27.358 90.175C27.518 90.05 27.598 90 27.598 90C27.778 89.85 27.978 89.725 28.178 89.575C29.836 97.175 28.238 103.875 24.358 109.15V109.155ZM51.23 86.305C49.95 90.23 47.252 100.23 45.612 99.705C44.212 99.255 43.352 91.63 45.332 84.13C46.332 80.355 48.452 75.855 49.712 74.105C51.73 71.28 53.95 70.38 54.47 71.505C55.17 72.98 52.03 83.855 51.23 86.305ZM73.43 99.555C72.89 99.905 72.39 100.13 72.15 99.955C71.97 99.83 72.37 99.355 72.37 99.355C72.37 99.355 75.15 95.63 76.25 93.93C76.89 92.93 77.63 91.755 78.428 90.455C78.428 90.58 78.448 90.705 78.448 90.855C78.422 95.33 74.984 98.355 73.424 99.555H73.43ZM90.546 94.68C90.146 94.33 90.206 93.155 91.546 89.505C92.066 88.08 93.264 85.68 95.346 83.38C95.5817 84.2507 95.7098 85.1611 95.726 86.08C95.706 91.705 92.486 93.805 90.548 94.68H90.546Z" fill="black"/>
</svg>
